<svg xmlns="http://www.w3.org/2000/svg" width="24" height="24" viewBox="0 0 24 24">
    <defs>
        <linearGradient id="linear0" gradientUnits="userSpaceOnUse" x1="-13.6248" y1="129.208" x2="244.49" y2="403.522"
                        gradientTransform="matrix(0.061367,0.0260487,-0.0260487,0.061367,0.572741,-2.795094)">
            <stop offset="0" style="stop-color:rgb(89.411765%,7.45098%,34.901961%);stop-opacity:1;"/>
            <stop offset="1" style="stop-color:rgb(94.901961%,23.529412%,47.45098%);stop-opacity:1;"/>
        </linearGradient>
        <linearGradient id="linear1" gradientUnits="userSpaceOnUse" x1="11.0088" y1="111.65" x2="111.65" y2="348.747"
                        gradientTransform="matrix(0.0666667,0,0,0.0666667,0,0)">
            <stop offset="0" style="stop-color:rgb(14.117647%,13.333333%,18.431373%);stop-opacity:1;"/>
            <stop offset="1" style="stop-color:rgb(16.862745%,16.078431%,21.568627%);stop-opacity:1;"/>
        </linearGradient>
    </defs>
    <g id="surface1">
        <path style=" stroke:none;fill-rule:nonzero;fill:url(#linear0);"
              d="M 13.21875 2.585938 L 17.925781 4.582031 C 21.273438 6.003906 22.835938 9.871094 21.414062 13.21875 L 19.417969 17.925781 C 17.996094 21.273438 14.128906 22.835938 10.777344 21.414062 L 6.074219 19.417969 C 2.726562 17.996094 1.164062 14.128906 2.585938 10.777344 L 4.582031 6.074219 C 6.003906 2.726562 9.871094 1.164062 13.21875 2.585938 Z M 13.21875 2.585938 "/>
        <path style=" stroke:none;fill-rule:evenodd;fill:url(#linear1);"
              d="M 4.089844 15.347656 C 3.082031 12.972656 2.578125 11.789062 2.546875 10.6875 C 2.5 9.066406 3.132812 7.503906 4.292969 6.367188 C 5.078125 5.597656 6.265625 5.097656 8.636719 4.089844 C 11.011719 3.082031 12.195312 2.578125 13.296875 2.546875 C 14.914062 2.5 16.480469 3.132812 17.613281 4.292969 C 18.382812 5.078125 18.886719 6.265625 19.894531 8.636719 C 20.902344 11.011719 21.40625 12.195312 21.4375 13.296875 C 21.480469 14.914062 20.847656 16.480469 19.691406 17.613281 C 18.90625 18.382812 17.71875 18.886719 15.347656 19.894531 C 12.972656 20.902344 11.789062 21.40625 10.6875 21.4375 C 9.066406 21.480469 7.503906 20.847656 6.367188 19.691406 C 5.597656 18.90625 5.097656 17.71875 4.089844 15.347656 Z M 4.089844 15.347656 "/>
        <path style=" stroke:none;fill-rule:evenodd;fill:rgb(100%,100%,100%);fill-opacity:1;"
              d="M 14.636719 8.714844 C 16.15625 8.714844 17.285156 9.828125 17.285156 11.636719 L 17.285156 15.265625 L 15.148438 15.265625 L 15.148438 11.980469 C 15.148438 11.074219 14.714844 10.640625 14.007812 10.640625 C 13.679688 10.640625 13.355469 10.785156 13.039062 11.167969 C 13.050781 11.324219 13.066406 11.480469 13.066406 11.636719 L 13.066406 15.265625 L 10.945312 15.265625 L 10.945312 11.980469 C 10.945312 11.074219 10.5 10.640625 9.804688 10.640625 C 9.476562 10.640625 9.160156 10.800781 8.847656 11.207031 L 8.847656 15.265625 L 6.726562 15.265625 L 6.726562 8.914062 L 8.847656 8.914062 L 8.847656 9.292969 C 9.28125 8.925781 9.726562 8.714844 10.433594 8.714844 C 11.230469 8.714844 11.914062 9.019531 12.382812 9.566406 C 13.050781 8.980469 13.695312 8.714844 14.636719 8.714844 Z M 14.636719 8.714844 "/>
    </g>
</svg>